<?xml version="1.0" standalone="no"?>
<!DOCTYPE svg PUBLIC "-//W3C//DTD SVG 20010904//EN"
 "http://www.w3.org/TR/2001/REC-SVG-20010904/DTD/svg10.dtd">
<svg version="1.0" xmlns="http://www.w3.org/2000/svg"
 width="1200.000000pt" height="1200.000000pt" viewBox="0 0 1200.000000 1200.000000"
 preserveAspectRatio="xMidYMid meet">
<metadata>
Created by potrace 1.14, written by Peter Selinger 2001-2017
</metadata>
<g transform="translate(0.000000,1200.000000) scale(0.100000,-0.100000)"
fill="#000000" stroke="none">
<path d="M5215 10179 c-2137 -28 -3532 -119 -3972 -260 -330 -106 -596 -306
-789 -594 -126 -190 -190 -355 -248 -645 -238 -1194 -264 -3579 -55 -5035 71
-500 144 -731 303 -970 237 -354 571 -567 1018 -649 1069 -196 4688 -271 7323
-151 1030 47 1678 115 1962 206 463 148 816 500 967 962 189 575 308 2280 257
3657 -48 1264 -155 2067 -326 2436 -83 181 -248 391 -408 519 -275 221 -516
304 -1067 369 -956 112 -3116 180 -4965 155z m-371 -2396 c4 -8 13 -13 21 -9
8 3 15 0 15 -6 0 -15 31 -37 53 -38 9 0 17 -3 17 -8 0 -4 8 -12 19 -17 39 -21
118 -66 166 -95 28 -17 57 -33 65 -37 8 -3 26 -15 39 -25 13 -10 32 -18 42
-18 11 0 19 -5 19 -11 0 -5 4 -8 9 -5 5 3 12 -1 15 -10 4 -9 13 -14 21 -10 8
3 14 0 12 -7 -1 -6 8 -13 21 -15 12 -2 22 -7 22 -10 0 -4 17 -16 38 -27 20
-11 39 -23 42 -26 3 -3 17 -12 32 -20 15 -8 57 -32 95 -53 37 -22 70 -39 72
-37 2 1 7 -1 10 -6 6 -8 41 -30 132 -81 20 -11 70 -41 112 -66 41 -25 79 -46
83 -46 4 0 15 -6 23 -14 14 -12 52 -34 161 -92 19 -11 37 -22 40 -25 3 -3 17
-12 32 -20 15 -8 60 -33 100 -57 40 -23 77 -42 82 -41 5 0 12 -3 15 -8 7 -9 4
-7 148 -93 56 -33 106 -60 111 -60 5 0 15 -7 22 -15 7 -9 20 -13 29 -10 8 3
12 3 8 -1 -7 -7 10 -19 63 -46 14 -7 27 -15 30 -18 5 -5 33 -22 80 -47 14 -8
43 -25 65 -39 22 -13 51 -30 65 -37 14 -6 27 -14 30 -17 11 -13 82 -50 96 -50
8 0 14 -4 14 -10 0 -5 5 -10 10 -10 6 0 23 -8 38 -18 50 -34 133 -82 143 -82
5 0 18 -9 29 -20 11 -11 27 -20 35 -20 8 0 15 -4 15 -9 0 -5 15 -15 33 -22 17
-7 50 -25 72 -40 22 -14 65 -39 95 -55 30 -16 57 -32 60 -35 3 -3 17 -12 32
-20 67 -35 128 -73 128 -78 0 -8 -33 -29 -82 -53 -21 -10 -38 -24 -38 -30 0
-6 -3 -8 -6 -5 -4 4 -19 -2 -34 -13 -16 -11 -33 -20 -39 -20 -5 0 -14 -7 -19
-16 -5 -9 -13 -15 -18 -15 -16 1 -44 -10 -44 -19 0 -4 -11 -11 -25 -14 -14 -4
-25 -11 -25 -16 0 -6 -6 -10 -14 -10 -20 0 -156 -80 -156 -91 0 -6 -4 -7 -10
-4 -5 3 -10 1 -10 -4 0 -6 -4 -10 -8 -8 -14 4 -110 -52 -116 -68 -3 -8 -11
-12 -18 -10 -8 3 -25 -5 -38 -17 -14 -13 -26 -21 -28 -19 -8 8 -122 -61 -116
-71 4 -7 2 -8 -5 -4 -6 4 -23 -1 -39 -12 -15 -10 -34 -22 -42 -26 -40 -18 -59
-34 -52 -41 4 -4 0 -6 -8 -3 -8 3 -36 -8 -63 -24 -26 -15 -52 -28 -57 -28 -6
0 -10 -4 -10 -8 0 -4 -19 -18 -42 -31 -52 -27 -84 -45 -163 -91 -33 -19 -72
-40 -87 -47 -16 -7 -28 -18 -28 -24 0 -7 -3 -9 -6 -6 -4 4 -19 -2 -33 -12 -14
-10 -36 -22 -49 -25 -13 -5 -20 -12 -16 -19 4 -7 4 -9 -1 -5 -9 9 -105 -41
-105 -54 0 -4 -3 -7 -8 -6 -15 6 -232 -124 -226 -134 4 -7 2 -8 -5 -4 -11 7
-88 -31 -124 -62 -10 -9 -25 -17 -35 -18 -9 -2 -22 -11 -29 -20 -7 -10 -13
-15 -13 -11 0 4 -18 -2 -40 -13 -25 -13 -38 -25 -34 -32 4 -6 3 -8 -4 -4 -6 3
-28 -3 -49 -15 -60 -33 -137 -83 -144 -92 -3 -5 -9 -8 -13 -8 -17 3 -26 0 -38
-12 -7 -7 -39 -26 -71 -43 -32 -16 -67 -37 -77 -46 -11 -10 -24 -18 -30 -18
-5 0 -10 -5 -10 -11 0 -5 -4 -8 -9 -5 -4 3 -29 -8 -55 -24 -26 -17 -49 -30
-52 -30 -3 0 -28 -15 -57 -33 -29 -18 -78 -46 -110 -63 -32 -16 -66 -36 -75
-44 -14 -12 -130 -75 -164 -88 -4 -2 -8 808 -8 1801 l0 1805 24 0 c14 0 27 -7
30 -15z"/>
</g>
</svg>
